<?xml version="1.0" encoding="utf-8"?>
<!-- Generator: Adobe Illustrator 22.0.1, SVG Export Plug-In . SVG Version: 6.00 Build 0)  -->
<svg version="1.1" id="Layer_1" xmlns="http://www.w3.org/2000/svg" xmlns:xlink="http://www.w3.org/1999/xlink" x="0px" y="0px"
	 width="379.2px" height="55.4px" viewBox="0 0 379.2 55.4" style="enable-background:new 0 0 379.2 55.4;" xml:space="preserve">
<style type="text/css">
	.st0{fill:#A7DD00;}
	.st1{fill:#006F69;}
</style>
<path class="st0" d="M379.2,41.6l-9.4-15.7l8.7-15.1h-10.2l-4.7,9.2l-4.7-9.2h-10.2l8.7,15.1l-9.4,15.7H358l5.5-9.8l5.5,9.8H379.2z
	 M321.9,26.2c0-4.4,3.3-7.7,7.8-7.7c4.4,0,7.8,3.4,7.8,7.7c0,4.4-3.3,7.7-7.8,7.7C325.2,34,321.9,30.6,321.9,26.2 M312.4,26.2
	c0,9,7.4,16.1,17.2,16.1c9.8,0,17.2-7.1,17.2-16.1c0-9-7.4-16.1-17.2-16.1C319.8,10.1,312.4,17.2,312.4,26.2 M299.2,28.9
	c0,2.9-1.8,4.8-4.5,4.8h-7v-9.6h7C297.4,24.1,299.2,26,299.2,28.9 M297.6,12.2c0,2.8-1.7,4.3-4.2,4.3h-5.7V7.9h5.7
	C295.9,7.9,297.6,9.5,297.6,12.2 M296.2,41.6c7.6,0,12.8-5.1,12.8-12.2c0-5-3.1-8.7-7.3-9.8c3.1-1.3,5.2-4.4,5.2-8.4
	c0-6.7-4.8-11.3-12.6-11.3h-16.1v41.6H296.2z M243.8,41.6h9.4V10.8h-9.4v2.9c-2.4-2.3-5.7-3.6-9.3-3.6c-8.6,0-15,7.2-15,16.1
	c0,8.9,6.4,16.1,15,16.1c3.5,0,6.9-1.3,9.3-3.6V41.6z M236.8,34c-4.4,0-7.8-3.4-7.8-7.7c0-4.4,3.3-7.7,7.8-7.7c3.2,0,5.8,1.8,7,4.3
	v6.8C242.6,32.2,240,34,236.8,34 M209.8,19.1h6.7v-8.3h-6.7V1.9l-9.6,0.8v8.1h-4.5v8.3h4.5v12.4c0,6.9,4.2,10.9,11.4,10.9
	c2,0,4-0.2,5.3-0.6v-7.8c-0.8,0.1-2.1,0.2-3.2,0.2c-2.8,0-4-1.2-4-3.6V19.1z M169,37.2c2.9,3.2,7.6,5.1,12.8,5.1
	c7.3,0,12.2-4.1,12.2-9.7c0-5.1-3.3-8.6-10.4-10.1c-3.1-0.6-4.3-1.8-4.3-3.2c0-1.3,1.2-2.1,3.1-2.1c2.2,0,4.3,1.1,6.1,2.6l4.2-5.7
	c-2.9-2.5-7-4.2-11.2-4.2c-6.7,0-11.4,3.9-11.4,9.2c0,5.1,3.5,8.7,10,10c3.5,0.7,4.7,1.7,4.7,3.2c0,1.5-1.4,2.5-3.7,2.5
	c-3,0-5.8-1.4-7.7-3.5L169,37.2z M154.6,41.6h9.6V10.8h-9.6v19.7c-1.1,1.8-3.2,3.5-5.4,3.5c-3.3,0-5.1-2.4-5.1-5.1v-18h-9.6v19.3
	c0,7.2,5.1,12.2,12.1,12.2c3.2,0,6.2-1.5,8.1-3.9V41.6z M118.8,40.3c0,4.3-3.1,7-7.8,7c-3.7,0-7-1.5-9.4-3.8l-4.9,6.4
	c3.6,3.5,9.1,5.6,15,5.6c10.2,0,16.5-6.5,16.5-15.8V10.8h-9.4v2.9c-2.4-2.3-5.7-3.6-9.3-3.6c-8.6,0-15,7.2-15,16.1
	c0,8.8,6.4,15.7,15,15.7c3.5,0,6.9-1.3,9.3-3.6V40.3z M111.7,34c-4.4,0-7.8-3.4-7.8-7.7c0-4.4,3.3-7.7,7.8-7.7c3.2,0,5.8,1.8,7,4.3
	v6.8C117.5,32.2,114.9,34,111.7,34 M75.1,17.3c3.5,0,5.9,2.1,6.7,5.5H68C68.9,19.4,71.6,17.3,75.1,17.3 M67.9,28.9H91
	c0.3-0.9,0.4-2.1,0.4-3.2c0-8.7-6.9-15.6-16.3-15.6c-9.6,0-16.9,7.1-16.9,16.1c0,9,7.1,16.1,17.4,16.1c5.5,0,10.2-1.9,13.6-5.6
	l-5.2-5.3c-2.3,2.2-5.2,3.7-8.3,3.7C71.6,35.1,68.5,32.8,67.9,28.9 M28.3,33.1V8.6h5.1c6.9,0,11.5,4.2,11.5,12.2
	c0,8.1-4.6,12.3-11.5,12.3H28.3z M18.5,0v41.6H34c12.5,0,20.9-8.3,20.9-20.8C54.9,8.3,46.5,0,34,0H18.5z M0,15.6
	c0,3.1,2.4,5.5,5.7,5.5c3.3,0,5.7-2.4,5.7-5.5c0-3.1-2.4-5.5-5.7-5.5C2.4,10.1,0,12.5,0,15.6 M0,36.9c0,3.1,2.4,5.5,5.7,5.5
	c3.3,0,5.7-2.4,5.7-5.5c0-3.1-2.4-5.5-5.7-5.5C2.4,31.4,0,33.8,0,36.9"/>
</svg>
